<svg width="164" height="56" viewBox="0 0 164 56" fill="none" xmlns="http://www.w3.org/2000/svg">
<mask id="mask0_1444_25315" style="mask-type:luminance" maskUnits="userSpaceOnUse" x="0" y="6" width="164" height="44">
<path d="M163.625 6H0V50H163.625V6Z" fill="white"/>
</mask>
<g mask="url(#mask0_1444_25315)">
<mask id="mask1_1444_25315" style="mask-type:luminance" maskUnits="userSpaceOnUse" x="0" y="6" width="164" height="44">
<path d="M163.474 6H0V50H163.474V6Z" fill="white"/>
</mask>
<g mask="url(#mask1_1444_25315)">
<path d="M43.6884 27.9014C43.742 40.051 34.0063 49.9458 21.943 49.9998C9.87823 50.0537 0.0553103 40.2483 0.000219934 28.0986C-0.0533399 15.9474 9.68234 6.05417 21.7456 6.00022C33.8104 5.94628 43.6333 15.7502 43.6869 27.9014H43.6884Z" fill="#8DC63F"/>
<path d="M42.0413 27.9075C42.0918 39.1432 33.0891 48.292 21.9348 48.3429C10.779 48.3938 1.69524 39.3266 1.64474 28.0909C1.59424 16.8552 10.5969 7.70633 21.7527 7.65547C32.907 7.60615 41.9908 16.6718 42.0413 27.9075Z" fill="#F9E988"/>
<path d="M22.2109 8.9732C23.4841 8.72197 24.8063 8.75588 26.0948 8.96549C27.3833 9.18281 28.6534 9.58353 29.8027 10.2154C30.9535 10.8534 31.9497 11.7181 32.9413 12.5304C33.9299 13.3518 34.9184 14.1718 35.8565 15.0734C36.8037 15.9658 37.6531 16.9784 38.3417 18.0973C39.0425 19.207 39.6531 20.3845 40.0847 21.6314C40.9279 24.1267 41.2201 26.8162 40.8008 29.3808H40.6708C40.2484 26.8377 39.6746 24.4164 38.7793 22.1108C38.3432 20.9579 37.8719 19.8143 37.2858 18.7231C36.6874 17.6411 36.0478 16.573 35.3209 15.5466C34.5864 14.5293 33.7141 13.5938 32.6857 12.8679C31.6604 12.1327 30.4806 11.6549 29.3405 11.2018C28.1974 10.7425 27.0589 10.3002 25.8729 9.95651C24.6885 9.60356 23.4749 9.35388 22.2109 9.10266V8.97166V8.9732Z" fill="white"/>
<path d="M32.0878 20.7191C30.6218 20.2922 29.1037 19.685 27.5643 19.0731C27.4755 18.6846 27.1343 18.2007 26.4425 17.6073C25.4371 16.7288 23.5488 16.7519 21.9175 17.1403C20.1164 16.7134 18.3366 16.5608 16.6289 16.9739C2.66343 20.8501 10.5811 30.3026 5.45312 39.8075C6.18308 41.3657 14.0472 50.4621 25.4265 48.0208C25.4265 48.0208 21.5349 38.6022 30.3173 34.0802C37.4408 30.4136 42.5871 23.6044 32.0863 20.7176L32.0878 20.7191Z" fill="#8BC53F"/>
<path d="M33.8112 26.9132C33.8112 27.3833 33.4348 27.7671 32.968 27.7686C32.5013 27.7717 32.1202 27.391 32.1172 26.9194C32.1141 26.4493 32.4921 26.0656 32.9604 26.064C33.4271 26.0609 33.8081 26.4416 33.8112 26.9117V26.9132Z" fill="white"/>
<path d="M21.918 17.1423C22.9356 17.2148 26.6144 18.4247 27.5632 19.0735C26.7766 16.7616 24.1094 16.4549 21.918 17.1423Z" fill="#009345"/>
<path d="M22.8848 22.986C22.8848 25.1592 21.1357 26.9192 18.9795 26.9192C16.8234 26.9192 15.0742 25.1592 15.0742 22.986C15.0742 20.8128 16.8234 19.0542 18.9795 19.0542C21.1357 19.0542 22.8848 20.8144 22.8848 22.986Z" fill="white"/>
<path d="M21.7281 23.0233C21.7281 24.5507 20.4977 25.7898 18.9812 25.7898C17.4647 25.7898 16.2344 24.5522 16.2344 23.0233C16.2344 21.4944 17.4647 20.2568 18.9812 20.2568C20.4977 20.2568 21.7281 21.4959 21.7281 23.0233Z" fill="#58595B"/>
<path d="M36.9762 28.6458C33.8131 30.8914 30.2124 32.5945 25.1089 32.5945C22.7201 32.5945 22.235 30.0376 20.6558 31.2907C19.8401 31.938 16.9662 33.3852 14.6846 33.2758C12.383 33.1648 8.70881 31.8177 7.67586 26.915C7.26726 31.8177 7.05913 35.4305 5.23047 39.5702C8.87101 45.4408 17.5493 49.969 25.4272 48.0224C24.5809 42.0686 29.7472 36.238 32.6578 33.2542C33.7596 32.1245 35.8714 30.2796 36.9762 28.6458Z" fill="#8BC53F"/>
<path d="M36.8518 28.7941C35.8693 29.6957 34.7003 30.3646 33.5097 30.9533C32.3069 31.5252 31.0536 31.9906 29.759 32.3282C28.4689 32.6642 27.1206 32.9169 25.7556 32.7936C24.4151 32.6749 22.9981 32.2002 22.0938 31.1722L22.1366 31.1229C23.2522 31.8473 24.5238 32.1016 25.7955 32.1386C27.0672 32.1725 28.3633 32.0769 29.6411 31.8165C30.9159 31.5514 32.1676 31.1553 33.3781 30.6528C34.5855 30.1504 35.779 29.5693 36.8089 28.7432L36.8503 28.7925L36.8518 28.7941Z" fill="#58595B"/>
<path d="M66.5163 25.2023C66.068 23.4375 64.9356 22.1475 62.7136 22.1475C59.4447 22.1475 58.077 25.0528 58.077 27.9996C58.077 30.9465 59.4447 33.8518 62.7136 33.8518C65.0854 33.8518 66.3879 32.0655 66.602 29.8276H69.208C68.994 33.5065 66.4091 36.0465 62.7136 36.0465C58.1412 36.0465 55.4062 32.3891 55.4062 27.9981C55.4062 23.6071 58.1412 19.9512 62.7136 19.9512C66.1538 19.9728 68.8667 21.8886 69.1866 25.2023H66.5163Z" fill="black"/>
<path d="M70.793 30.1099C70.793 26.71 72.822 24.2578 76.3695 24.2578C79.9165 24.2578 81.9456 26.7115 81.9456 30.1099C81.9456 33.5084 79.9165 35.9836 76.3695 35.9836C72.822 35.9836 70.793 33.5299 70.793 30.1099ZM79.5096 30.1099C79.5096 28.1942 78.5484 26.1936 76.3695 26.1936C74.1901 26.1936 73.229 28.1942 73.229 30.1099C73.229 32.0257 74.1901 34.0478 76.3695 34.0478C78.5484 34.0478 79.5096 32.0473 79.5096 30.1099Z" fill="black"/>
<path d="M84.0391 20.3184H86.4751V22.6426H84.0391V20.3184ZM84.0391 24.5569H86.4751V35.6816H84.0391V24.5569Z" fill="black"/>
<path d="M89.125 24.5584H91.4327V26.1936L91.4753 26.2368C92.2022 25.0099 93.4618 24.2578 94.9156 24.2578C97.309 24.2578 98.8252 25.5494 98.8252 28.0447V35.6831H96.3891V28.6905C96.3465 26.9473 95.6622 26.1952 94.2313 26.1952C92.6079 26.1952 91.561 27.4867 91.561 29.122V35.6846H89.125V24.5599V24.5584Z" fill="black"/>
<path d="M115.039 35.6825H113.33L112.925 33.8747C111.494 35.5099 110.19 36.0478 108.331 36.0478C103.758 36.0478 101.023 32.3904 101.023 27.9994C101.023 23.6084 103.758 19.9526 108.331 19.9526C111.664 19.9526 114.463 21.7389 114.868 25.2036H112.262C112.005 23.1815 110.254 22.1488 108.331 22.1488C105.062 22.1488 103.694 25.0541 103.694 28.0009C103.694 30.9478 105.062 33.8531 108.331 33.8531C111.066 33.8962 112.561 32.2394 112.603 29.6362H108.543V27.5925H115.038L115.039 35.6825Z" fill="black"/>
<path d="M119.505 30.7538C119.505 32.4969 120.445 34.0459 122.475 34.0459C123.885 34.0459 124.74 33.4217 125.167 32.1948H127.475C126.941 34.6269 124.89 35.9817 122.475 35.9817C119.014 35.9817 117.07 33.5496 117.07 30.1296C117.07 26.967 119.121 24.2559 122.411 24.2559C125.894 24.2559 128.03 27.4186 127.625 30.7538H119.505ZM125.188 29.1401C125.103 27.5912 124.056 26.1917 122.411 26.1917C120.766 26.1917 119.569 27.4833 119.505 29.1401H125.188Z" fill="black"/>
<path d="M136.939 28.2805C136.746 26.9242 135.764 26.1936 134.419 26.1936C133.158 26.1936 131.384 26.861 131.384 30.2394C131.384 32.0904 132.197 34.0478 134.312 34.0478C135.721 34.0478 136.705 33.1015 136.939 31.5094H139.375C138.927 34.393 137.153 35.9851 134.312 35.9851C130.85 35.9851 128.949 33.5099 128.949 30.2394C128.949 26.9689 130.766 24.2578 134.397 24.2578C136.96 24.2578 139.14 25.5494 139.375 28.282H136.939V28.2805Z" fill="black"/>
<path d="M141.426 20.3184H143.862V29.0542L148.263 24.5569H151.253L147.023 28.6458L151.66 35.6816H148.69L145.314 30.2811L143.862 31.7005V35.6816H141.426V20.3184Z" fill="black"/>
<path d="M152.32 30.1099C152.32 26.71 154.349 24.2578 157.897 24.2578C161.444 24.2578 163.473 26.7115 163.473 30.1099C163.473 33.5084 161.444 35.9836 157.897 35.9836C154.349 35.9836 152.32 33.5299 152.32 30.1099ZM161.037 30.1099C161.037 28.1942 160.076 26.1936 157.897 26.1936C155.717 26.1936 154.756 28.1942 154.756 30.1099C154.756 32.0257 155.717 34.0478 157.897 34.0478C160.076 34.0478 161.037 32.0473 161.037 30.1099Z" fill="black"/>
</g>
</g>
</svg>
