<svg width="156" height="56" viewBox="0 0 156 56" fill="none" xmlns="http://www.w3.org/2000/svg">
<path d="M20.3994 48C19.7447 47.9999 19.1013 47.8295 18.5327 47.5057L4.26413 39.3516C3.69958 39.0287 3.23003 38.5634 2.90257 38.0024C2.57512 37.4414 2.40126 36.8044 2.39844 36.1552V19.847C2.4009 19.1974 2.5747 18.5598 2.90237 17.9984C3.23004 17.4369 3.70004 16.9714 4.26515 16.6486L18.5327 8.4945C19.1007 8.17046 19.7436 8 20.3979 8C21.0522 8 21.6951 8.17046 22.2631 8.4945L36.5337 16.6486C37.0985 16.9714 37.5681 17.4369 37.8954 17.9981C38.2227 18.5594 38.3962 19.1967 38.3984 19.846V36.1542C38.3958 36.8038 38.222 37.4413 37.8943 38.0027C37.5667 38.5641 37.0967 39.0297 36.5317 39.3526L22.2631 47.5067C21.6955 47.8301 21.0531 48.0001 20.3994 48ZM20.2972 9.07344C19.6796 9.07394 19.0728 9.2352 18.5368 9.54128L5.0713 17.2316C4.53836 17.5361 4.09519 17.9753 3.78634 18.5049C3.4775 19.0345 3.31385 19.6359 3.31188 20.2486V35.6394C3.31414 36.2519 3.47791 36.8531 3.78673 37.3825C4.09556 37.9119 4.53858 38.3509 5.0713 38.6554L18.5337 46.3478C19.0693 46.6534 19.6756 46.8142 20.2926 46.8142C20.9097 46.8142 21.516 46.6534 22.0516 46.3478L35.515 38.6554C36.0478 38.3504 36.4908 37.911 36.7996 37.3813C37.1084 36.8516 37.2722 36.2502 37.2745 35.6374V20.2496C37.2725 19.6371 37.1089 19.0358 36.8 18.5064C36.4912 17.9769 36.048 17.538 35.515 17.2336L22.0516 9.54026C21.5162 9.23444 20.9101 9.07351 20.2932 9.07344H20.2972Z" fill="#9DA1A4"/>
<path d="M20.3004 45.5969C19.7266 45.5968 19.1629 45.4464 18.6657 45.1607L6.17384 37.9647C5.67749 37.6783 5.26525 37.2668 4.97836 36.7715C4.69147 36.2762 4.53998 35.7144 4.53906 35.1424V20.7504C4.54022 20.1783 4.69179 19.6165 4.97865 19.1211C5.26551 18.6257 5.67762 18.214 6.17384 17.9271L18.6657 10.7321C19.1627 10.4459 19.7265 10.2952 20.3004 10.2952C20.8744 10.2952 21.4382 10.4459 21.9352 10.7321L34.43 17.9281C34.9265 18.2141 35.339 18.6253 35.6259 19.1205C35.9128 19.6157 36.0642 20.1775 36.0648 20.7494V35.1414C36.0631 35.7133 35.9113 36.2748 35.6245 36.7699C35.3377 37.2651 34.9258 37.6767 34.43 37.9637L21.9342 45.1597C21.4375 45.4459 20.8741 45.5967 20.3004 45.5969ZM26.1886 27.1483V37.2278H28.8952V20.989L12.617 37.2278H16.6518L26.1866 27.1504L26.1886 27.1483ZM11.3234 18.4082V34.646L27.6017 18.4082H23.5669L14.03 28.4866V18.4082H11.3234Z" fill="#9DA1A4"/>
<path d="M50.1367 37.4546V23.3628H52.3242L59.248 33.0698H59.4043V23.3628H61.8262V37.4546H59.6484L52.7246 27.7476H52.5684V37.4546H50.1367ZM69.6289 37.6694C66.4551 37.6694 64.5312 35.5405 64.5312 32.1421V32.1323C64.5312 28.7729 66.4746 26.5757 69.5117 26.5757C72.5488 26.5757 74.4238 28.7046 74.4238 31.9272V32.728H66.9629C66.9922 34.6421 68.0273 35.7554 69.6777 35.7554C70.9961 35.7554 71.748 35.0913 71.9824 34.603L72.0117 34.5347H74.3262L74.2969 34.6226C73.9551 35.9995 72.5293 37.6694 69.6289 37.6694ZM69.541 28.48C68.1836 28.48 67.168 29.3979 66.9824 31.0972H72.0508C71.8848 29.3491 70.8984 28.48 69.541 28.48ZM81.4648 37.6694C78.2617 37.6694 76.3281 35.5796 76.3281 32.1226V32.103C76.3281 28.6753 78.291 26.5757 81.4648 26.5757C84.6484 26.5757 86.6016 28.6655 86.6016 32.103V32.1226C86.6016 35.5796 84.6582 37.6694 81.4648 37.6694ZM81.4648 35.6968C83.1543 35.6968 84.1113 34.3784 84.1113 32.1323V32.1128C84.1113 29.8667 83.1445 28.5386 81.4648 28.5386C79.7754 28.5386 78.8086 29.8667 78.8086 32.1128V32.1323C78.8086 34.3784 79.7754 35.6968 81.4648 35.6968ZM95.1758 37.8062C91.1816 37.8062 88.7012 34.9741 88.7012 30.4233V30.4038C88.7012 25.8335 91.1719 23.0112 95.166 23.0112C98.3691 23.0112 100.801 25.0425 101.133 27.9233V28.0015H98.6621L98.6523 27.9624C98.291 26.2925 96.9434 25.189 95.166 25.189C92.7734 25.189 91.2793 27.1909 91.2793 30.394V30.4136C91.2793 33.6265 92.7734 35.6284 95.1758 35.6284C96.9629 35.6284 98.291 34.6323 98.6523 33.0796L98.6621 33.0308H101.133V33.0991C100.762 35.9214 98.4277 37.8062 95.1758 37.8062ZM103.691 37.4546V26.7808H106.123V28.4214H106.289C106.65 27.2788 107.627 26.605 109.033 26.605C109.404 26.605 109.785 26.6538 110.02 26.7222V28.8999C109.629 28.8218 109.229 28.7632 108.809 28.7632C107.188 28.7632 106.123 29.73 106.123 31.2534V37.4546H103.691ZM113.311 41.2046C113.018 41.2046 112.676 41.1948 112.383 41.1655V39.3003C112.578 39.3198 112.852 39.3296 113.105 39.3296C114.102 39.3296 114.697 38.9194 114.961 37.9526L115.088 37.4644L111.27 26.7808H113.926L116.416 35.1206H116.602L119.082 26.7808H121.641L117.812 37.6792C116.895 40.355 115.674 41.2046 113.311 41.2046ZM123.73 40.9995V26.7808H126.162V28.4507H126.328C126.914 27.2886 128.076 26.605 129.57 26.605C132.246 26.605 133.955 28.7339 133.955 32.1128V32.1323C133.955 35.5308 132.275 37.6304 129.57 37.6304C128.105 37.6304 126.885 36.9077 126.328 35.7554H126.162V40.9995H123.73ZM128.809 35.5796C130.469 35.5796 131.475 34.271 131.475 32.1323V32.1128C131.475 29.9644 130.469 28.6558 128.809 28.6558C127.158 28.6558 126.133 29.9644 126.133 32.103V32.1226C126.133 34.2612 127.158 35.5796 128.809 35.5796ZM140.605 37.5034C138.154 37.5034 137.148 36.6831 137.148 34.6226V28.6655H135.488V26.7808H137.148V24.1636H139.619V26.7808H141.875V28.6655H139.619V34.0464C139.619 35.1108 140.039 35.5601 141.055 35.5601C141.396 35.5601 141.582 35.5503 141.875 35.521V37.396C141.523 37.4644 141.074 37.5034 140.605 37.5034ZM148.809 37.6694C145.605 37.6694 143.672 35.5796 143.672 32.1226V32.103C143.672 28.6753 145.635 26.5757 148.809 26.5757C151.992 26.5757 153.945 28.6655 153.945 32.103V32.1226C153.945 35.5796 152.002 37.6694 148.809 37.6694ZM148.809 35.6968C150.498 35.6968 151.455 34.3784 151.455 32.1323V32.1128C151.455 29.8667 150.488 28.5386 148.809 28.5386C147.119 28.5386 146.152 29.8667 146.152 32.1128V32.1323C146.152 34.3784 147.119 35.6968 148.809 35.6968Z" fill="#9DA1A4"/>
</svg>
