<svg width="140" height="56" viewBox="0 0 140 56" fill="none" xmlns="http://www.w3.org/2000/svg">
<g clip-path="url(#clip0_317_3829)">
<path d="M19 28L23.6836 25.293V30.707L19 33.4141V28Z" fill="#CC7400" stroke="#CC7400" stroke-width="0.34375" stroke-linejoin="bevel"/>
<path d="M19 44.2422L23.6836 41.5352V46.9492L19 49.6562V44.2422Z" fill="#DE7F00" stroke="#DE7F00" stroke-width="0.34375" stroke-linejoin="bevel"/>
<path d="M19 38.8281L23.6836 36.1211V41.5352L19 44.2422V38.8281Z" fill="#D17200" stroke="#D17200" stroke-width="0.34375" stroke-linejoin="bevel"/>
<path d="M19 33.4141L23.6836 30.707V36.1211L19 38.8281V33.4141Z" fill="#E38900" stroke="#E38900" stroke-width="0.34375" stroke-linejoin="bevel"/>
<path d="M33.0508 19.8789L37.7344 17.1719V22.5859L33.0508 25.293V19.8789Z" fill="#C97900" stroke="#C97900" stroke-width="0.34375" stroke-linejoin="bevel"/>
<path d="M33.0508 36.1211L37.7344 33.4141V38.8281L33.0508 41.5352V36.1211Z" fill="#C96E00" stroke="#C96E00" stroke-width="0.34375" stroke-linejoin="bevel"/>
<path d="M33.0508 30.707L37.7344 28V33.4141L33.0508 36.1211V30.707Z" fill="#CC7400" stroke="#CC7400" stroke-width="0.34375" stroke-linejoin="bevel"/>
<path d="M33.0508 25.293L37.7344 22.5859V28L33.0508 30.707V25.293ZM28.3672 22.5859L33.0508 19.8789V25.293L28.3672 28V22.5859Z" fill="#E68A00"/>
<path d="M33.0508 25.293L37.7344 22.5859V28L33.0508 30.707V25.293ZM33.0508 25.293V19.8789L28.3672 22.5859V28L33.0508 25.293Z" stroke="#E68A00" stroke-width="0.34375" stroke-linejoin="bevel"/>
<path d="M28.3672 38.8281L33.0508 36.1211V41.5352L28.3672 44.2422V38.8281Z" fill="#D68100" stroke="#D68100" stroke-width="0.34375" stroke-linejoin="bevel"/>
<path d="M28.3672 33.4141L33.0508 30.707V36.1211L28.3672 38.8281V33.4141Z" fill="#C96E00" stroke="#C96E00" stroke-width="0.34375" stroke-linejoin="bevel"/>
<path d="M28.3672 28L33.0508 25.293V30.707L28.3672 33.4141V28Z" fill="#DB7D00" stroke="#DB7D00" stroke-width="0.34375" stroke-linejoin="bevel"/>
<path d="M23.6836 25.293L28.3672 22.5859V28L23.6836 30.707V25.293Z" fill="#D18100" stroke="#D18100" stroke-width="0.34375" stroke-linejoin="bevel"/>
<path d="M23.6836 41.5352L28.3672 38.8281V44.2422L23.6836 46.9492V41.5352Z" fill="#C47000" stroke="#C47000" stroke-width="0.34375" stroke-linejoin="bevel"/>
<path d="M23.6836 36.1211L28.3672 33.4141V38.8281L23.6836 41.5352V36.1211Z" fill="#D17E00" stroke="#D17E00" stroke-width="0.34375" stroke-linejoin="bevel"/>
<path d="M23.6836 30.707L28.3672 28V33.4141L23.6836 36.1211V30.707Z" fill="#CC7400" stroke="#CC7400" stroke-width="0.34375" stroke-linejoin="bevel"/>
<path d="M0.266357 17.1719L4.94995 19.8789V25.293L0.266357 22.5859V17.1719ZM0.266357 33.4141L4.94995 36.1211V41.5352L0.266357 38.8281V33.4141Z" fill="#FC9800" stroke="#FC9800" stroke-width="0.34375" stroke-linejoin="bevel"/>
<path d="M0.266357 28L4.94995 30.707V36.1211L0.266357 33.4141V28Z" fill="#FFAA00" stroke="#FFAA00" stroke-width="0.34375" stroke-linejoin="bevel"/>
<path d="M0.266357 22.5859L4.94995 25.293V30.707L0.266357 28V22.5859Z" fill="#FFBD1E" stroke="#FFBD1E" stroke-width="0.34375" stroke-linejoin="bevel"/>
<path d="M14.3171 25.293L19.0007 28V33.4141L14.3171 30.707V25.293Z" fill="#FC9800" stroke="#FC9800" stroke-width="0.34375" stroke-linejoin="bevel"/>
<path d="M14.3171 41.5352L19.0007 44.2422V49.6562L14.3171 46.9492V41.5352Z" fill="#FFAA00" stroke="#FFAA00" stroke-width="0.34375" stroke-linejoin="bevel"/>
<path d="M14.3171 36.1211L19.0007 38.8281V44.2422L14.3171 41.5352V36.1211Z" fill="#FFAA00" stroke="#FFAA00" stroke-width="0.34375" stroke-linejoin="bevel"/>
<path d="M14.3171 30.707L19.0007 33.4141V38.8281L14.3171 36.1211V30.707ZM9.63354 22.5859L14.3171 25.293V30.707L9.63354 28V22.5859Z" fill="#FFAA00"/>
<path d="M14.3171 30.707L19.0007 33.4141V38.8281L14.3171 36.1211V30.707ZM14.3171 30.707V25.293L9.63354 22.5859V28L14.3171 30.707Z" stroke="#FFAA00" stroke-width="0.34375" stroke-linejoin="bevel"/>
<path d="M9.63354 38.8281L14.3171 41.5352V46.9492L9.63354 44.2422V38.8281Z" fill="#FC9800" stroke="#FC9800" stroke-width="0.34375" stroke-linejoin="bevel"/>
<path d="M9.63354 33.4141L14.3171 36.1211V41.5352L9.63354 38.8281V33.4141Z" fill="#FFBD1E" stroke="#FFBD1E" stroke-width="0.34375" stroke-linejoin="bevel"/>
<path d="M9.63354 28L14.3171 30.707V36.1211L9.63354 33.4141V28Z" fill="#FFB304" stroke="#FFB304" stroke-width="0.34375" stroke-linejoin="bevel"/>
<path d="M4.94995 19.8789L9.63354 22.5859V28L4.94995 25.293V19.8789Z" fill="#FFAA00" stroke="#FFAA00" stroke-width="0.34375" stroke-linejoin="bevel"/>
<path d="M4.94995 36.1211L9.63354 38.8281V44.2422L4.94995 41.5352V36.1211Z" fill="#FFB304" stroke="#FFB304" stroke-width="0.34375" stroke-linejoin="bevel"/>
<path d="M4.94995 30.707L9.63354 33.4141V38.8281L4.94995 36.1211V30.707Z" fill="#FFAA00" stroke="#FFAA00" stroke-width="0.34375" stroke-linejoin="bevel"/>
<path d="M4.94995 25.293L9.63354 28V33.4141L4.94995 30.707V25.293Z" fill="#FC9800" stroke="#FC9800" stroke-width="0.34375" stroke-linejoin="bevel"/>
<path d="M19 6.34375L23.6836 9.05078L19 11.7578L14.3164 9.05078L19 6.34375ZM4.94922 14.4648L9.63281 17.1719L4.94922 19.8789L0.265625 17.1719L4.94922 14.4648Z" fill="#FFE929" stroke="#FFE929" stroke-width="0.34375" stroke-linejoin="bevel"/>
<path d="M9.63281 11.7578L14.3164 14.4648L9.63281 17.1719L4.94922 14.4648L9.63281 11.7578Z" fill="#FFE65E" stroke="#FFE65E" stroke-width="0.34375" stroke-linejoin="bevel"/>
<path d="M14.3164 9.05078L19 11.7578L14.3164 14.4648L9.63281 11.7578L14.3164 9.05078ZM33.0508 14.4648L37.7344 17.1719L33.0508 19.8789L28.3672 17.1719L33.0508 14.4648Z" fill="#FFDB2E" stroke="#FFDB2E" stroke-width="0.34375" stroke-linejoin="bevel"/>
<path d="M19 22.5859L23.6836 25.293L19 28L14.3164 25.293L19 22.5859Z" fill="#FFE65E" stroke="#FFE65E" stroke-width="0.34375" stroke-linejoin="bevel"/>
<path d="M23.6836 19.8789L28.3672 22.5859L23.6836 25.293L19 22.5859L23.6836 19.8789Z" fill="#FFDB2E" stroke="#FFDB2E" stroke-width="0.34375" stroke-linejoin="bevel"/>
<path d="M28.3672 17.1719L33.0508 19.8789L28.3672 22.5859L23.6836 19.8789L28.3672 17.1719Z" fill="#FFE65E" stroke="#FFE65E" stroke-width="0.34375" stroke-linejoin="bevel"/>
<path d="M28.3672 11.7578L33.0508 14.4648L28.3672 17.1719L23.6836 14.4648L28.3672 11.7578Z" fill="#FFE36A" stroke="#FFE36A" stroke-width="0.34375" stroke-linejoin="bevel"/>
<path d="M14.3164 19.8789L19 22.5859L14.3164 25.293L9.63281 22.5859L14.3164 19.8789Z" fill="#FFDB2E" stroke="#FFDB2E" stroke-width="0.34375" stroke-linejoin="bevel"/>
<path d="M19 17.1719L23.6836 19.8789L19 22.5859L14.3164 19.8789L19 17.1719Z" fill="#FFE36A" stroke="#FFE36A" stroke-width="0.34375" stroke-linejoin="bevel"/>
<path d="M23.6836 14.4648L28.3672 17.1719L23.6836 19.8789L19 17.1719L23.6836 14.4648Z" fill="#FFDB2E" stroke="#FFDB2E" stroke-width="0.34375" stroke-linejoin="bevel"/>
<path d="M23.6836 9.05078L28.3672 11.7578L23.6836 14.4648L19 11.7578L23.6836 9.05078Z" fill="#FFE65E" stroke="#FFE65E" stroke-width="0.34375" stroke-linejoin="bevel"/>
<path d="M9.63281 17.1719L14.3164 19.8789L9.63281 22.5859L4.94922 19.8789L9.63281 17.1719Z" fill="#FFE929" stroke="#FFE929" stroke-width="0.34375" stroke-linejoin="bevel"/>
<path d="M14.3164 14.4648L19 17.1719L14.3164 19.8789L9.63281 17.1719L14.3164 14.4648Z" fill="#FFE65E" stroke="#FFE65E" stroke-width="0.34375" stroke-linejoin="bevel"/>
<path d="M19 11.7578L23.6836 14.4648L19 17.1719L14.3164 14.4648L19 11.7578Z" fill="#FFE929" stroke="#FFE929" stroke-width="0.34375" stroke-linejoin="bevel"/>
</g>
<path d="M49.5787 34V18.499H55.3903C59.9987 18.499 62.6842 21.3135 62.6842 26.1689V26.1904C62.6842 31.1533 60.0309 34 55.3903 34H49.5787ZM52.3502 31.6689H55.025C58.108 31.6689 59.859 29.7139 59.859 26.2334V26.2119C59.859 22.8066 58.0651 20.8301 55.025 20.8301H52.3502V31.6689ZM70.6119 34.2363C67.1207 34.2363 65.0045 31.8945 65.0045 28.1563V28.1455C65.0045 24.4502 67.1422 22.0332 70.483 22.0332C73.8238 22.0332 75.8863 24.375 75.8863 27.9199V28.8008H67.6793C67.7115 30.9063 68.8502 32.1309 70.6656 32.1309C72.1158 32.1309 72.943 31.4004 73.2008 30.8633L73.233 30.7881H75.7789L75.7467 30.8848C75.3707 32.3994 73.8024 34.2363 70.6119 34.2363ZM70.5153 24.1279C69.0221 24.1279 67.9049 25.1377 67.7008 27.0068H73.276C73.0934 25.084 72.0084 24.1279 70.5153 24.1279ZM78.8404 34V18.499H84.652C89.2604 18.499 91.9459 21.3135 91.9459 26.1689V26.1904C91.9459 31.1533 89.2926 34 84.652 34H78.8404ZM81.6119 31.6689H84.2867C87.3697 31.6689 89.1207 29.7139 89.1207 26.2334V26.2119C89.1207 22.8066 87.3268 20.8301 84.2867 20.8301H81.6119V31.6689ZM98.735 34.2363C96.0924 34.2363 94.7389 32.6465 94.7389 29.8535V22.2588H97.4137V29.2412C97.4137 31.0566 98.0904 31.9805 99.7018 31.9805C101.431 31.9805 102.355 30.8633 102.355 29.1016V22.2588H105.03V34H102.355V32.2168H102.172C101.625 33.4736 100.432 34.2363 98.735 34.2363ZM112.732 34.2363C109.746 34.2363 107.941 32.8613 107.715 30.874V30.8525H110.369L110.38 30.874C110.659 31.6904 111.443 32.2598 112.775 32.2598C114.107 32.2598 115.031 31.6582 115.031 30.7773V30.7559C115.031 30.0684 114.515 29.6172 113.226 29.3271L111.325 28.8975C109.09 28.4033 108.027 27.3506 108.027 25.6211V25.6104C108.027 23.4941 109.961 22.0332 112.732 22.0332C115.589 22.0332 117.297 23.4512 117.469 25.3525V25.374H114.956L114.945 25.3418C114.752 24.6006 113.978 23.999 112.721 23.999C111.529 23.999 110.67 24.5791 110.67 25.46V25.4707C110.67 26.1582 111.164 26.5771 112.431 26.8672L114.333 27.2861C116.631 27.8018 117.716 28.7793 117.716 30.4873V30.5088C117.716 32.7432 115.622 34.2363 112.732 34.2363ZM124.946 34.0537C122.25 34.0537 121.143 33.1514 121.143 30.8848V24.332H119.317V22.2588H121.143V19.3799H123.861V22.2588H126.342V24.332H123.861V30.251C123.861 31.4219 124.323 31.916 125.44 31.916C125.816 31.916 126.02 31.9053 126.342 31.873V33.9355C125.956 34.0107 125.462 34.0537 124.946 34.0537Z" fill="white"/>
<defs>
<clipPath id="clip0_317_3829">
<rect width="37.8125" height="44" fill="white" transform="translate(0.09375 6)"/>
</clipPath>
</defs>
</svg>
