<svg width="128" height="56" viewBox="0 0 128 56" fill="none" xmlns="http://www.w3.org/2000/svg">
<mask id="mask0_1236_24831" style="mask-type:luminance" maskUnits="userSpaceOnUse" x="0" y="8" width="41" height="40">
<path d="M40.2047 8H0V48H40.2047V8Z" fill="white"/>
</mask>
<g mask="url(#mask0_1236_24831)">
<path fill-rule="evenodd" clip-rule="evenodd" d="M9.49455 8H30.7101C35.9565 8 40.2047 12.2266 40.2047 17.4462V38.5538C40.2047 43.7734 35.9565 48 30.7101 48H9.49455C4.24824 48 0 43.7734 0 38.5538V17.4462C0 12.2266 4.24824 8 9.49455 8ZM12.2842 17.5483H27.8953C28.4071 17.5483 28.9189 17.7266 29.2772 18.1085L35.0097 23.6336C35.9055 24.3975 35.9311 25.7469 35.1121 26.5617L21.2669 40.2345C20.6272 40.8711 19.5523 40.8711 18.9125 40.2345L5.06735 26.5617C4.22282 25.7469 4.27401 24.3975 5.16972 23.6336L10.8767 18.1085C11.2606 17.752 11.7724 17.5483 12.2842 17.5483ZM27.2043 19.6871H12.9752C12.5146 19.6871 12.0796 19.8653 11.7724 20.1963L8.03601 24.0156H14.1012C14.9457 24.0156 15.7136 24.5757 15.9951 25.365L16.4813 26.7909C16.7116 27.4529 17.3514 27.9112 18.0679 27.9112H22.1115C22.8281 27.9112 23.4678 27.4529 23.6982 26.7909L24.1844 25.3905C24.4659 24.5757 25.2337 24.041 26.0782 24.041H32.1947L28.4071 20.1963C28.0744 19.8653 27.6649 19.6871 27.2043 19.6871ZM12.7448 26.1543H8.03601L16.3021 34.8876C16.7116 35.3205 17.4282 34.8622 17.1978 34.3275L14.3316 27.3001C14.1012 26.6126 13.4615 26.1543 12.7448 26.1543ZM17.6329 30.0245L19.5779 36.7972C19.7314 37.3065 20.4736 37.3065 20.6272 36.7972L22.5465 30.0245H17.6329ZM32.1947 26.1543H27.4345C26.718 26.1543 26.0526 26.6381 25.8478 27.3256L22.9816 34.3275C22.7769 34.8622 23.4678 35.3205 23.8773 34.8876L32.1947 26.1543Z" fill="#9DA1A4"/>
</g>
<mask id="mask1_1236_24831" style="mask-type:luminance" maskUnits="userSpaceOnUse" x="48" y="19" width="80" height="18">
<path d="M127.273 19.5001H48.2461V36.5001H127.273V19.5001Z" fill="white"/>
</mask>
<g mask="url(#mask1_1236_24831)">
<path fill-rule="evenodd" clip-rule="evenodd" d="M48.7812 22.1823H53.5882V35.3267H56.3909V22.1823H61.1978V19.6792H48.7812V22.1823ZM117.86 24.9934V19.6824V19.6792H115.06V30.0157C115.06 30.8814 115.213 31.6596 115.513 32.3535C115.813 33.0473 116.23 33.6471 116.758 34.1529C117.286 34.6587 117.921 35.0478 118.665 35.3267C119.408 35.6055 120.213 35.7449 121.079 35.7449C121.976 35.7449 122.8 35.5925 123.56 35.2942C124.316 34.9959 124.971 34.5744 125.522 34.033C126.072 33.4915 126.502 32.856 126.811 32.1232C127.122 31.3937 127.275 30.5896 127.275 29.711C127.275 28.8323 127.128 28.0249 126.834 27.2857C126.541 26.5497 126.141 25.9142 125.632 25.3889C125.124 24.8604 124.515 24.4454 123.801 24.1374C123.087 23.8294 122.321 23.677 121.496 23.677C121.115 23.677 120.759 23.7062 120.428 23.7645C120.098 23.8229 119.779 23.9104 119.47 24.0272C119.163 24.1471 118.87 24.2833 118.599 24.4454C118.325 24.6075 118.081 24.7891 117.86 24.9934ZM123.53 27.1398C123.823 27.464 124.054 27.8401 124.224 28.2714C124.394 28.7026 124.478 29.1825 124.478 29.7077C124.478 30.233 124.394 30.7128 124.224 31.1441C124.054 31.5753 123.817 31.9482 123.517 32.2627C123.214 32.5772 122.862 32.8236 122.458 32.9987C122.054 33.1738 121.611 33.2613 121.125 33.2613C120.623 33.2613 120.166 33.1835 119.756 33.0214C119.342 32.8593 118.99 32.6226 118.697 32.3081C118.403 31.9935 118.172 31.6142 118.002 31.1765C117.834 30.7388 117.749 30.2492 117.749 29.7077C117.749 29.1825 117.834 28.7026 118.002 28.2714C118.172 27.8401 118.403 27.4608 118.697 27.1398C118.99 26.8188 119.345 26.5691 119.756 26.3941C120.17 26.219 120.627 26.1314 121.125 26.1314C121.611 26.1314 122.06 26.219 122.471 26.3941C122.881 26.5691 123.237 26.8188 123.53 27.1398ZM110.934 35.3265H113.737H113.74V24.0724H110.917V28.4398C110.917 29.2439 110.836 29.9605 110.673 30.5895C110.51 31.2185 110.276 31.7502 109.967 32.1814C109.657 32.6159 109.282 32.9434 108.842 33.1704C108.402 33.3973 107.9 33.5108 107.343 33.5108C106.858 33.5108 106.428 33.4168 106.053 33.2255C105.678 33.0342 105.361 32.7521 105.104 32.3792C104.846 32.0064 104.654 31.5395 104.521 30.9753C104.387 30.4111 104.322 29.7562 104.322 29.0105V24.0724H101.542V29.1628C101.542 30.0837 101.659 30.9429 101.893 31.7405C102.129 32.5381 102.477 33.232 102.94 33.8253C103.403 34.4187 103.986 34.892 104.694 35.2422C105.397 35.5924 106.215 35.7675 107.141 35.7675C107.874 35.7675 108.584 35.6086 109.269 35.2941C109.953 34.9796 110.507 34.5581 110.934 34.0328V35.3265ZM87.9541 19.6823H90.7339V25.2332C91.1739 24.7371 91.692 24.3545 92.2884 24.0919C92.8848 23.8292 93.6148 23.6963 94.4817 23.6963C95.4072 23.6963 96.2252 23.8487 96.9291 24.1567C97.6363 24.4647 98.2262 24.9025 98.7052 25.4731C99.1842 26.0438 99.5395 26.7279 99.7742 27.5255C100.009 28.3231 100.126 29.2277 100.126 30.2361V35.3265H97.3919V30.3009C97.3919 29.6849 97.3332 29.1272 97.2159 28.6214C97.0986 28.1156 96.9128 27.6844 96.6651 27.3277C96.4142 26.9711 96.0948 26.6955 95.707 26.5042C95.316 26.3129 94.8564 26.2188 94.3285 26.2188C93.7386 26.2188 93.2205 26.3258 92.774 26.5366C92.3242 26.7473 91.9527 27.0489 91.6594 27.4379C91.3661 27.827 91.138 28.2972 90.9751 28.8548C90.8121 29.4125 90.7306 30.0318 90.7306 30.7192V35.3265H87.9508V19.6823H87.9541ZM77.1699 24.0695H74.39H74.3867V35.3236H77.1667V30.9789C77.1667 30.1748 77.2611 29.4777 77.4436 28.8844C77.6294 28.291 77.8836 27.8047 78.2061 27.4253C78.5321 27.0427 78.9101 26.7606 79.3435 26.5791C79.7769 26.3943 80.2528 26.3035 80.7677 26.3035C81.149 26.3035 81.5237 26.3813 81.892 26.5337C82.2571 26.6893 82.5895 26.9325 82.8828 27.2697C83.1793 27.6069 83.414 28.0349 83.59 28.5536C83.7659 29.0757 83.8539 29.6982 83.8539 30.431V35.3236H86.5881V30.2559C86.5881 29.4096 86.4708 28.5861 86.2361 27.7885C86.0015 26.9909 85.6463 26.2873 85.177 25.681C84.7077 25.0746 84.1212 24.5883 83.4237 24.2219C82.723 23.8555 81.9051 23.674 80.9633 23.674C80.2267 23.674 79.5195 23.8328 78.8351 24.1473C78.1508 24.4618 77.5967 24.8833 77.1699 25.4086V24.0695ZM72.5689 32.1332C72.269 32.8724 71.8421 33.5079 71.2913 34.0429C70.7406 34.5779 70.0888 34.9897 69.3393 35.2815C68.5897 35.5733 67.7588 35.7192 66.8462 35.7192C65.9501 35.7192 65.1222 35.5733 64.3662 35.2815C63.6101 34.9897 62.9583 34.5746 62.4141 34.0429C61.8699 33.5079 61.4462 32.8724 61.1464 32.1332C60.8466 31.3939 60.6934 30.5801 60.6934 29.6852C60.6934 28.8065 60.8466 27.9992 61.1562 27.26C61.4657 26.5207 61.8862 25.8852 62.4239 25.3502C62.9615 24.8152 63.6068 24.4035 64.3662 24.1117C65.1222 23.8198 65.9501 23.674 66.8462 23.674C67.7588 23.674 68.5897 23.8198 69.3393 24.1117C70.0888 24.4035 70.7406 24.8185 71.2913 25.3502C71.8421 25.8852 72.269 26.5207 72.5689 27.26C72.8687 27.9992 73.0219 28.813 73.0219 29.7079C73.0219 30.5866 72.872 31.3972 72.5689 32.1332ZM70.1541 28.1613C69.9781 27.7009 69.7304 27.3054 69.4143 26.9779C69.0982 26.6472 68.7201 26.3878 68.2769 26.1997C67.837 26.0084 67.3578 25.9144 66.843 25.9144C66.3281 25.9144 65.849 26.0084 65.409 26.1997C64.9691 26.391 64.5944 26.6504 64.2847 26.9779C63.9751 27.3054 63.734 27.7009 63.558 28.1613C63.382 28.6217 63.294 29.1308 63.294 29.6852C63.294 30.2559 63.3788 30.7682 63.5482 31.2221C63.7177 31.676 63.9588 32.0716 64.2749 32.4055C64.591 32.7427 64.9691 33.0054 65.4123 33.1967C65.8523 33.388 66.3313 33.482 66.8462 33.482C67.3611 33.482 67.837 33.388 68.2801 33.1967C68.7201 33.0054 69.1014 32.7427 69.4175 32.4055C69.7336 32.0683 69.9813 31.6728 70.1573 31.2221C70.3333 30.7682 70.4212 30.2559 70.4212 29.6852C70.418 29.1308 70.3299 28.625 70.1541 28.1613Z" fill="#9DA1A4"/>
</g>
</svg>
